<?xml version="1.0" encoding="UTF-8"?>
<svg version="1.1" xmlns="http://www.w3.org/2000/svg" width="500" height="500">
<path d="M0 0 C4.76496954 4.1345526 7.50439741 7.75081713 8.23828125 14.04296875 C8.46844036 20.69335574 7.05030628 26.47843854 2.609375 31.60546875 C-2.46905262 36.16268933 -7.75039433 37.27101607 -14.39453125 37.08984375 C-15.59787109 37.06986328 -16.80121094 37.04988281 -18.04101562 37.02929688 C-20.54372526 36.96838162 -23.04633752 36.90331632 -25.54882812 36.83398438 C-32.76282759 36.72228871 -38.31345424 37.23140862 -45 40 C-45.67565506 42.65716506 -45.67565506 42.65716506 -45 46 C-43.28932654 48.0612213 -41.37441471 49.79581882 -39.4140625 51.62109375 C-18.77527993 71.95931153 -7.15745833 101.91361387 -6.70751953 130.55566406 C-6.5122055 165.98848756 -17.79116904 195.07641854 -42.3125 220.75 C-62.3998823 240.12607273 -91.01748153 252.86365407 -119 254 C-120.25103516 254.07734375 -120.25103516 254.07734375 -121.52734375 254.15625 C-129.26865682 254.41682716 -136.73160865 253.30500866 -144.35083008 252.06738281 C-153.84247069 250.01934867 -153.84247069 250.01934867 -162.69018555 252.20507812 C-166.11533036 256.89877145 -165.21883819 263.69540721 -165.25 269.25 C-165.270625 270.15363281 -165.29125 271.05726563 -165.3125 271.98828125 C-165.36929909 281.85712324 -162.87914843 289.97734721 -155.875 297.1875 C-145.06913966 303.99989021 -131.61450774 303.02414182 -119.5 300.875 C-114.39247189 299.69265916 -109.50035193 298.23194982 -104.59375 296.375 C-103.90756592 296.1160495 -103.22138184 295.857099 -102.5144043 295.59030151 C-94.49059968 292.50062723 -86.75259027 288.83191674 -79 285.125 C-77.57057085 284.44867246 -76.14088347 283.77289042 -74.7109375 283.09765625 C-65.69065671 278.82593765 -56.74944184 274.40647136 -47.83349609 269.92175293 C0.0878999 245.8302442 0.0878999 245.8302442 25.19140625 253.03125 C39.75244274 258.05369374 48.95201179 267.54037195 56 281 C64.56930599 298.80713941 72.1532324 324.63095812 66 344 C61.4908319 354.34649117 54.97834587 360.81019008 45 366 C34.99215612 369.50622837 23.26682094 369.52043013 13.4609375 365.32421875 C3.63145319 360.03502005 -2.85972021 353.10708117 -6.375 342.5 C-7.76174519 337.45622634 -8.86490585 333.18943509 -8 328 C-4.52320694 324.73392167 -0.63299486 324.45421518 4 324 C3.77183594 324.556875 3.54367187 325.11375 3.30859375 325.6875 C0.94441506 331.9637053 0.18092654 336.52848445 2.79296875 342.94921875 C4.84768651 346.94962842 6.84668756 349.30091764 11 351 C17.77180261 352.4198941 22.63680119 351.98734475 28.75 348.375 C32.27983229 344.64906591 33.87980766 340.84134693 34.09765625 335.69140625 C33.74049163 330.52558619 32.49340174 326.96548305 29 323 C24.40149504 320.16233641 20.43360771 319.48474736 15.125 319.5625 C14.3832251 319.57079834 13.6414502 319.57909668 12.87719727 319.58764648 C-12.05237176 320.33027438 -36.45519527 335.03777591 -56.8125 348.1875 C-86.56979765 367.37292481 -123.66869205 379.97836755 -159.35571289 372.87304688 C-172.08308643 369.82814925 -181.82043949 364.29150637 -191 355 C-191.95519531 354.07767578 -191.95519531 354.07767578 -192.9296875 353.13671875 C-206.90844596 338.62987386 -210.36861916 317.66227526 -210.30444336 298.32202148 C-209.98008735 282.64168032 -206.50156207 266.95608239 -200.3125 252.5625 C-197.07203138 245.00140655 -196.09465857 238.80640805 -199 231 C-201.8541396 225.83585533 -206.0442328 221.94394592 -210.25 217.875 C-231.57514534 197.07599828 -243.14558563 167.51948305 -243.99609375 137.9921875 C-244.31968369 107.99834191 -234.90922295 76.94747773 -213.9453125 54.9609375 C-212.98238281 53.99027344 -212.98238281 53.99027344 -212 53 C-210.7934375 51.7315625 -210.7934375 51.7315625 -209.5625 50.4375 C-208.716875 49.633125 -207.87125 48.82875 -207 48 C-206.35289062 47.35804688 -205.70578125 46.71609375 -205.0390625 46.0546875 C-180.9862854 23.12064422 -149.94076804 15.30297881 -117.55859375 15.72265625 C-106.77614316 15.9903199 -97.28954044 18.13291011 -87.16015625 21.671875 C-86.3496582 21.95337402 -85.53916016 22.23487305 -84.70410156 22.52490234 C-83.15947638 23.07394122 -81.62266663 23.64573452 -80.09667969 24.24462891 C-76.48207962 25.57980424 -74.27927843 26.02979371 -70.375 25.61328125 C-65.91741703 23.48251532 -63.68070253 20.654838 -60.6875 16.8125 C-46.31759752 -0.62694237 -21.42259264 -12.87207656 0 0 Z M-168.44140625 69.8203125 C-180.25211627 86.33754607 -182.16877632 108.89362131 -179.17944336 128.51660156 C-174.63305146 154.63944947 -163.66220324 178.10596815 -145 197 C-144.39671875 197.67546875 -143.7934375 198.3509375 -143.171875 199.046875 C-135.19774278 207.79519482 -124.1348659 213.00980843 -112.44140625 214.27734375 C-102.48976086 214.66547345 -94.33036434 211.69570076 -87 205 C-74.72426352 193.43590042 -70.92313408 175.27892867 -69.796875 159.078125 C-69.28768261 128.35685065 -80.88888426 96.99400232 -102.25 74.7890625 C-103.61125 73.40847656 -103.61125 73.40847656 -105 72 C-105.7425 71.24460937 -106.485 70.48921875 -107.25 69.7109375 C-116.50819676 60.89522809 -127.26047043 55.69361346 -139.9375 54.6875 C-151.51448527 55.07799355 -161.23659408 61.00148929 -168.44140625 69.8203125 Z " fill="#020102" transform="translate(356,90)"/>
<path d="M0 0 C1.00430557 0.00081573 1.00430557 0.00081573 2.02890015 0.00164795 C30.93937596 0.10873489 55.01379426 9.54701377 81 21.375 C81 22.035 81 22.695 81 23.375 C75.00737651 22.75854813 69.11714987 21.92594713 63.1875 20.875 C56.12799922 19.6767749 49.16566999 18.65819414 42 18.375 C41.33436035 18.34776855 40.6687207 18.32053711 39.98291016 18.29248047 C2.66101408 16.98337359 -33.17965467 25.84236299 -66 43.375 C-66.8964624 43.84824707 -66.8964624 43.84824707 -67.81103516 44.33105469 C-114.6534518 69.25685125 -145.89230262 112.71932723 -161.2265625 162.78466797 C-166.3119085 179.81608244 -167.39300911 197.01725638 -167.3125 214.6875 C-167.31034485 215.54317566 -167.3081897 216.39885132 -167.30596924 217.28045654 C-167.32755712 250.49568198 -167.32755712 250.49568198 -155 280.375 C-152.98634171 281.17959044 -152.98634171 281.17959044 -150.75 281.3125 C-145.5162211 282.22457548 -142.48605745 284.42602435 -139 288.375 C-135.98964832 292.84197346 -135.10591004 297.07006621 -136 302.375 C-137.78977338 307.66734065 -140.224453 311.31375192 -145 314.375 C-150.81385476 316.31295159 -156.92108776 316.39555692 -162.4375 313.6875 C-166.83926469 309.71517577 -169.70590253 306.25726122 -171 300.375 C-170.9086514 295.62487266 -169.60399176 292.54454557 -167.3125 288.5 C-165.00701808 284.04941751 -164.60626421 281.6255507 -166.0703125 276.86328125 C-166.37710938 276.04214844 -166.68390625 275.22101563 -167 274.375 C-186.48947678 222.04214568 -190.78378971 162.92306708 -167.29296875 111.2265625 C-144.98409009 63.49811736 -103.95372984 28.35853103 -54.78222656 10.07519531 C-49.09648923 8.03237756 -43.37069189 6.16317755 -37.5625 4.5 C-36.90241943 4.30881592 -36.24233887 4.11763184 -35.56225586 3.9206543 C-23.90566592 0.77943501 -12.02490504 -0.01671498 0 0 Z " fill="#050505" transform="translate(217,18.625)"/>
<path d="M0 0 C5.10640233 3.87382246 8.63154273 8.15231247 12.3125 13.375 C12.87864014 14.17083496 13.44478027 14.96666992 14.02807617 15.78662109 C42.97619865 56.93703595 58.19207383 106.05483499 50.046875 156.37890625 C45.20964656 183.4799122 36.38209941 208.07560981 23.6875 232.4375 C23.07515503 233.61747559 23.07515503 233.61747559 22.45043945 234.82128906 C20.28832446 238.89063017 18.04055595 242.50022965 15 246 C10.77964845 244.5024559 7.04193318 242.37264666 3.16015625 240.17578125 C0.83689443 238.91122102 -1.50714884 237.88456009 -4 237 C-3.32327812 233.59361871 -2.00266543 230.91795079 -0.33984375 227.87890625 C29.49733907 172.50623393 38.82854405 109.14638434 20.625 48.30078125 C15.92981563 33.30689987 10.24037876 18.55871907 1.46875 5.46875 C0 3 0 3 0 0 Z " fill="#050404" transform="translate(389,103)"/>
<path d="M0 0 C5.10683154 3.87414807 8.63011505 8.15287026 12.3125 13.375 C12.87283936 14.1592334 13.43317871 14.9434668 14.01049805 15.75146484 C19.07935211 22.93348846 23.6442668 30.36902555 28 38 C27.35289062 38.4434375 26.70578125 38.886875 26.0390625 39.34375 C23.45012234 41.44664392 23.48306766 42.77954895 23 46 C22.34 46.99 21.68 47.98 21 49 C20.79955078 48.41734375 20.59910156 47.8346875 20.39257812 47.234375 C15.43042829 32.92177955 10.22106427 18.99383393 2 6.1875 C0 3 0 3 0 0 Z " fill="#0D0C0F" transform="translate(389,103)"/>
<path d="M0 0 C-0.22816406 0.556875 -0.45632813 1.11375 -0.69140625 1.6875 C-3.02950119 7.89446056 -3.84145924 12.60340594 -1.18359375 18.94921875 C-0.89613281 19.56410156 -0.60867188 20.17898438 -0.3125 20.8125 C0.120625 21.864375 0.55375 22.91625 1 24 C0.34 24.99 -0.32 25.98 -1 27 C-1.66 27 -2.32 27 -3 27 C-3.33 27.99 -3.66 28.98 -4 30 C-9.48444191 23.78967607 -12.02669433 15.62640739 -12.5625 7.375 C-12 4 -12 4 -9.75 2.0625 C-6.26807 0.71720887 -3.74094532 0 0 0 Z " fill="#0C0B0E" transform="translate(360,414)"/>
<path d="M0 0 C8.77581709 3.44637352 17.46248127 6.98860866 26 11 C26 11.66 26 12.32 26 13 C20.38781847 12.44490481 14.91616475 11.63408797 9.375 10.5625 C-4.23981668 8.09767044 -18.20644001 7.73269244 -32 7 C-32 6.67 -32 6.34 -32 6 C-31.10168457 6.01571045 -30.20336914 6.0314209 -29.27783203 6.04760742 C-25.94932308 6.09869255 -22.62122973 6.13632785 -19.29248047 6.16479492 C-17.85100742 6.17989483 -16.40958041 6.20037658 -14.96826172 6.22631836 C-12.89799657 6.2626513 -10.82833793 6.27971329 -8.7578125 6.29296875 C-7.5114502 6.3086792 -6.26508789 6.32438965 -4.98095703 6.34057617 C-3.99724121 6.22818604 -3.01352539 6.1157959 -2 6 C0.2773501 3.18490007 0.2773501 3.18490007 0 0 Z " fill="#111012" transform="translate(272,29)"/>
<path d="M0 0 C4.93907632 3.81014459 8.67432674 7.97674406 12.4375 12.9375 C12.99115234 13.62779297 13.54480469 14.31808594 14.11523438 15.02929688 C18.03755171 20.18252824 18.03755171 20.18252824 17.84765625 24.31640625 C17.56792969 25.20199219 17.28820312 26.08757812 17 27 C17 27.99 17 28.98 17 30 C16.01 30 15.02 30 14 30 C13.49210937 28.80503906 12.98421875 27.61007813 12.4609375 26.37890625 C7.63203403 15.01920586 7.63203403 15.01920586 1.03125 4.62890625 C0 3 0 3 0 0 Z " fill="#110F12" transform="translate(389,103)"/>
<path d="M0 0 C0.33 0 0.66 0 1 0 C1.19839025 1.37347099 1.38310983 2.74891846 1.5625 4.125 C1.66691406 4.89070312 1.77132812 5.65640625 1.87890625 6.4453125 C2 9 2 9 1.52294922 11.71728516 C0.96691016 15.20771524 0.82361692 18.5451791 0.75390625 22.078125 C0.72101362 23.41667433 0.68780132 24.75521584 0.65429688 26.09375 C0.60665921 28.18289594 0.56209042 30.27200026 0.52319336 32.36132812 C0.48360887 34.39222572 0.43209292 36.42254457 0.37890625 38.453125 C0.3538501 39.66129883 0.32879395 40.86947266 0.30297852 42.11425781 C0 45 0 45 -2 47 C-2.2109426 31.20526705 -2.34629894 15.64897597 0 0 Z " fill="#171517" transform="translate(36,174)"/>
<path d="M0 0 C-1.64630328 -0.14042877 -3.29204179 -0.28749329 -4.9375 -0.4375 C-6.31228516 -0.55931641 -6.31228516 -0.55931641 -7.71484375 -0.68359375 C-10 -1 -10 -1 -11 -2 C-12.68644036 -2.09965586 -14.37702519 -2.13080526 -16.06640625 -2.1328125 C-17.63165039 -2.13474609 -17.63165039 -2.13474609 -19.22851562 -2.13671875 C-20.32873047 -2.13285156 -21.42894531 -2.12898438 -22.5625 -2.125 C-23.63564453 -2.12886719 -24.70878906 -2.13273437 -25.81445312 -2.13671875 C-31.63858242 -2.12958571 -37.24140005 -1.87949527 -43 -1 C-32.08521133 -8.27652578 -10.71747196 -7.14498131 0 0 Z " fill="#29292C" transform="translate(387,346)"/>
<path d="M0 0 C2.29230787 4.23667615 3.5663067 8.73921439 5 13.3203125 C5.82773801 16.10457641 5.82773801 16.10457641 8 18 C9.98821313 18.39764263 11.98944339 18.73775349 14 19 C13.01 19.33 12.02 19.66 11 20 C11 20.66 11 21.32 11 22 C10.34 22 9.68 22 9 22 C8.67 22.33 8.34 22.66 8 23 C5.47937803 21.73968902 4.21484258 20.62327957 3.2890625 17.9375 C2.43394014 14.17000437 2 10.88774474 2 7 C0.68 6.34 -0.64 5.68 -2 5 C-1.34 3.35 -0.68 1.7 0 0 Z " fill="#171518" transform="translate(54,281)"/>
<path d="M0 0 C0.99 0.33 1.98 0.66 3 1 C3.99 1 4.98 1 6 1 C8 1 10 1 12 1 C9.67607797 2.54928135 7.73130052 3.63607817 5.20703125 4.7265625 C4.49482422 5.0359375 3.78261719 5.3453125 3.04882812 5.6640625 C1.9418457 6.13972656 1.9418457 6.13972656 0.8125 6.625 C0.06291016 6.94984375 -0.68667969 7.2746875 -1.45898438 7.609375 C-3.3048602 8.40886262 -5.15228184 9.20477953 -7 10 C-7 9.34 -7 8.68 -7 8 C-6.030625 7.38125 -5.06125 6.7625 -4.0625 6.125 C-0.89459901 4.34963648 -0.89459901 4.34963648 -0.125 1.75 C-0.08375 1.1725 -0.0425 0.595 0 0 Z " fill="#131314" transform="translate(162,49)"/>
<path d="M0 0 C3.6809183 3.19173308 5.49092636 6.69661294 7.3125 11.125 C7.58900391 11.75792969 7.86550781 12.39085937 8.15039062 13.04296875 C8.83531575 14.66815632 9.42539814 16.33260989 10 18 C9.67 18.66 9.34 19.32 9 20 C6.9375 20.625 6.9375 20.625 5 21 C4.67 20.01 4.34 19.02 4 18 C4.66 18 5.32 18 6 18 C5.56639477 13.77019327 5.56639477 13.77019327 3.5625 10.125 C1.25140437 6.98190995 0.82289868 3.79799392 0 0 Z " fill="#161215" transform="translate(406,363)"/>
<path d="M0 0 C5.65728428 4.1394763 9.17376609 9.17008739 13 15 C12.01 15.495 12.01 15.495 11 16 C10.01 15.01 9.02 14.02 8 13 C7.67 13.66 7.34 14.32 7 15 C6.01515892 13.25318707 5.03733813 11.5024149 4.0625 9.75 C3.51722656 8.77546875 2.97195313 7.8009375 2.41015625 6.796875 C1.23389165 4.46389591 0.47898309 2.54649238 0 0 Z " fill="#211D22" transform="translate(389,103)"/>
<path d="M0 0 C1.65 0.33 3.3 0.66 5 1 C4.83026138 7.66609845 3.47714629 12.88126889 -1 18 C-1.66 18 -2.32 18 -3 18 C-1.16666667 13.28571429 -1.16666667 13.28571429 0.09375 11.125 C1.19561531 8.54131583 1.03053419 7.00763251 0.625 4.25 C0.51414063 3.45078125 0.40328125 2.6515625 0.2890625 1.828125 C0.14597656 0.92320312 0.14597656 0.92320312 0 0 Z " fill="#141214" transform="translate(51,293)"/>
<path d="M0 0 C18.54545455 1.54545455 18.54545455 1.54545455 23 6 C22.21625 6.12375 21.4325 6.2475 20.625 6.375 C17.85942178 6.79117993 17.85942178 6.79117993 16 9 C15.34 8.01 14.68 7.02 14 6 C14.33 5.34 14.66 4.68 15 4 C14.00097656 3.87882812 13.00195312 3.75765625 11.97265625 3.6328125 C10.68230469 3.46523438 9.39195312 3.29765625 8.0625 3.125 C6.77472656 2.96257813 5.48695313 2.80015625 4.16015625 2.6328125 C3.11730469 2.42398437 2.07445312 2.21515625 1 2 C0.67 1.34 0.34 0.68 0 0 Z " fill="#2F2D2E" transform="translate(241,21)"/>
<path d="M0 0 C0.33 0 0.66 0 1 0 C1.144375 1.11375 1.28875 2.2275 1.4375 3.375 C1.78372035 6.82142047 1.78372035 6.82142047 3 9 C2.01 9.495 2.01 9.495 1 10 C0.53001139 12.32624017 0.53001139 12.32624017 0.3671875 15.12890625 C0.28339844 16.16337891 0.19960937 17.19785156 0.11328125 18.26367188 C0.03464844 19.35228516 -0.04398438 20.44089844 -0.125 21.5625 C-0.21136719 22.65498047 -0.29773438 23.74746094 -0.38671875 24.87304688 C-0.59960954 27.58149081 -0.80363237 30.29031607 -1 33 C-1.33 33 -1.66 33 -2 33 C-2.21552718 21.76863917 -2.02562659 11.08668839 0 0 Z " fill="#363234" transform="translate(148,367)"/>
<path d="M0 0 C-1.75 4.875 -1.75 4.875 -4 6 C-4.99 6.66 -5.98 7.32 -7 8 C-7 7.34 -7 6.68 -7 6 C-7.66 6 -8.32 6 -9 6 C-9.33 6.66 -9.66 7.32 -10 8 C-10.33 6.35 -10.66 4.7 -11 3 C-9.73160474 2.49384702 -8.46016898 1.99530901 -7.1875 1.5 C-6.12595703 1.08234375 -6.12595703 1.08234375 -5.04296875 0.65625 C-3 0 -3 0 0 0 Z " fill="#171618" transform="translate(360,414)"/>
<path d="M0 0 C0.66 0.66 1.32 1.32 2 2 C1.9765625 4.1640625 1.9765625 4.1640625 1.625 6.625 C1.51414062 7.44226563 1.40328125 8.25953125 1.2890625 9.1015625 C1.19367188 9.72804688 1.09828125 10.35453125 1 11 C0.360625 11.12375 -0.27875 11.2475 -0.9375 11.375 C-1.618125 11.58125 -2.29875 11.7875 -3 12 C-3.33 12.66 -3.66 13.32 -4 14 C-4.66 14 -5.32 14 -6 14 C-4.50829734 9.0276578 -2.39542583 4.58154261 0 0 Z " fill="#1C171D" transform="translate(397,315)"/>
<path d="M0 0 C0.66 0.99 1.32 1.98 2 3 C1.34 4.32 0.68 5.64 0 7 C0.99 7.99 1.98 8.98 3 10 C0 11 0 11 -2 11 C-2.33 11.99 -2.66 12.98 -3 14 C-4.37095624 10.30962722 -3.60010967 8.29116165 -2.0625 4.75 C-1.68222656 3.85796875 -1.30195313 2.9659375 -0.91015625 2.046875 C-0.60980469 1.37140625 -0.30945313 0.6959375 0 0 Z " fill="#121113" transform="translate(156,341)"/>
<path d="M0 0 C5.75 1.875 5.75 1.875 8 3 C8 3.66 8 4.32 8 5 C1.25390382 4.33644956 -5.34448534 3.28134207 -12 2 C-12 1.67 -12 1.34 -12 1 C-7.48382401 0.92345464 -3.40914783 0.89771304 1 2 C0.67 1.34 0.34 0.68 0 0 Z " fill="#2F2A30" transform="translate(290,37)"/>
<path d="M0 0 C0.33 0 0.66 0 1 0 C1 6.27 1 12.54 1 19 C-2 16 -2 16 -2.29296875 13.51953125 C-2.25816406 12.62621094 -2.22335938 11.73289063 -2.1875 10.8125 C-2.16042969 9.91144531 -2.13335937 9.01039063 -2.10546875 8.08203125 C-2.07066406 7.39496094 -2.03585938 6.70789063 -2 6 C-1.67 6 -1.34 6 -1 6 C-0.67 4.02 -0.34 2.04 0 0 Z " fill="#302F2F" transform="translate(48,226)"/>
<path d="M0 0 C0.33 0 0.66 0 1 0 C1.12086218 6.43255401 0.82351864 12.61773055 0 19 C-2.30055997 15.54916005 -2.27010256 14.12824272 -2.25 10.0625 C-2.25515625 9.02222656 -2.2603125 7.98195312 -2.265625 6.91015625 C-2.00629936 4.06901505 -1.46519702 2.41292366 0 0 Z " fill="#131113" transform="translate(48,216)"/>
<path d="M0 0 C2.48233348 3.72350022 2.54322777 6.68566933 2 11 C1.19002181 13.49079999 0.17696713 15.64606575 -1 18 C-2.4049404 14.10939581 -1.69513239 10.76907638 -1.0625 6.75 C-0.86785156 5.48671875 -0.67320313 4.2234375 -0.47265625 2.921875 C-0.31667969 1.95765625 -0.16070312 0.9934375 0 0 Z " fill="#2F2D2F" transform="translate(79,310)"/>
<path d="M0 0 C0.33 0 0.66 0 1 0 C1.26305952 8.2425317 0.60614551 15.91191011 -1 24 C-1.33 24 -1.66 24 -2 24 C-2.33 21.69 -2.66 19.38 -3 17 C-2.34 17 -1.68 17 -1 17 C-1.33 14.36 -1.66 11.72 -2 9 C-1.34 9 -0.68 9 0 9 C0 6.03 0 3.06 0 0 Z " fill="#191718" transform="translate(348,227)"/>
<path d="M0 0 C0.66 0 1.32 0 2 0 C2 0.66 2 1.32 2 2 C3.98 2 5.96 2 8 2 C8 2.33 8 2.66 8 3 C6.87980469 3.27714844 5.75960938 3.55429687 4.60546875 3.83984375 C3.13279698 4.20566667 1.66014158 4.57155553 0.1875 4.9375 C-0.55048828 5.11990234 -1.28847656 5.30230469 -2.04882812 5.49023438 C-5.07060984 6.2422615 -8.04456718 7.01485573 -11 8 C-11 7.34 -11 6.68 -11 6 C-7.44239635 3.38411497 -4.35522853 2.50642192 0 2 C0 1.34 0 0.68 0 0 Z " fill="#2B272A" transform="translate(354,407)"/>
<path d="M0 0 C1.11328125 1.65234375 1.11328125 1.65234375 2 4 C1.35546875 6.69140625 1.35546875 6.69140625 0.1875 9.5625 C-0.19019531 10.51253906 -0.56789063 11.46257812 -0.95703125 12.44140625 C-1.30121094 13.28574219 -1.64539063 14.13007813 -2 15 C-2.33 15.99 -2.66 16.98 -3 18 C-3.66 18 -4.32 18 -5 18 C-1.92482916 5.33029613 -1.92482916 5.33029613 0 0 Z " fill="#222122" transform="translate(410,280)"/>
<path d="M0 0 C4.43090471 1.20842856 6.98112756 2.51668565 10 6 C8.35232753 5.71890887 6.70686855 5.42481474 5.0625 5.125 C4.14597656 4.96257813 3.22945313 4.80015625 2.28515625 4.6328125 C1.15400391 4.31957031 1.15400391 4.31957031 0 4 C-0.33 3.34 -0.66 2.68 -1 2 C-0.67 1.34 -0.34 0.68 0 0 Z " fill="#120F13" transform="translate(283,34)"/>
<path d="M0 0 C1.0625 1.8125 1.0625 1.8125 2 4 C1 7 1 7 -2 9 C-2.33 9.99 -2.66 10.98 -3 12 C-3.66 12 -4.32 12 -5 12 C-3.68938409 7.76570244 -2.05643741 3.92592596 0 0 Z " fill="#161113" transform="translate(54,121)"/>
<path d="M0 0 C1.32 1.32 2.64 2.64 4 4 C1.03 5.65 -1.94 7.3 -5 9 C-5 8.34 -5 7.68 -5 7 C-4.34 7 -3.68 7 -3 7 C-3 6.34 -3 5.68 -3 5 C-2.34 5 -1.68 5 -1 5 C-1.33 4.01 -1.66 3.02 -2 2 C-1.34 1.34 -0.68 0.68 0 0 Z " fill="#131112" transform="translate(310,425)"/>
<path d="M0 0 C1.73169596 3.1622274 2.7128976 6.26742722 3.625 9.75 C3.88539062 10.73484375 4.14578125 11.7196875 4.4140625 12.734375 C4.60742188 13.48203125 4.80078125 14.2296875 5 15 C4.34 15 3.68 15 3 15 C2.87625 13.081875 2.87625 13.081875 2.75 11.125 C2.54130069 8.94666582 2.54130069 8.94666582 2 7 C0.07935207 5.4100567 0.07935207 5.4100567 -2 5 C-1.34 3.35 -0.68 1.7 0 0 Z " fill="#323133" transform="translate(54,281)"/>
<path d="M0 0 C0.33 0.66 0.66 1.32 1 2 C0.67 2.66 0.34 3.32 0 4 C-0.99 4 -1.98 4 -3 4 C-3.66 4.66 -4.32 5.32 -5 6 C-9.75 4.125 -9.75 4.125 -12 3 C-11.67 2.34 -11.34 1.68 -11 1 C-10.113125 1.20625 -9.22625 1.4125 -8.3125 1.625 C-4.7747289 2.02550239 -3.13367033 1.56683516 0 0 Z " fill="#1D1C1E" transform="translate(289,114)"/>
<path d="M0 0 C1.13643966 3.40931897 0.86747764 4.00335456 -0.4375 7.1875 C-0.72496094 7.90292969 -1.01242187 8.61835938 -1.30859375 9.35546875 C-1.53675781 9.89816406 -1.76492188 10.44085938 -2 11 C-2.66 10.67 -3.32 10.34 -4 10 C-3.38461538 3.47692308 -3.38461538 3.47692308 -1.4375 1.0625 C-0.7259375 0.5365625 -0.7259375 0.5365625 0 0 Z " fill="#151415" transform="translate(422,427)"/>
<path d="M0 0 C0.66 0.33 1.32 0.66 2 1 C0.35 3.64 -1.3 6.28 -3 9 C-3.66 7.68 -4.32 6.36 -5 5 C-3.35 3.35 -1.7 1.7 0 0 Z " fill="#151314" transform="translate(334,280)"/>
<path d="M0 0 C0.33 0.66 0.66 1.32 1 2 C1.66 2.33 2.32 2.66 3 3 C3 3.66 3 4.32 3 5 C3.309375 5.99 3.309375 5.99 3.625 7 C3.74875 7.66 3.8725 8.32 4 9 C3.34 9.66 2.68 10.32 2 11 C-1.07692308 4.6 -1.07692308 4.6 -0.6875 1.5625 C-0.460625 1.046875 -0.23375 0.53125 0 0 Z " fill="#171418" transform="translate(120,262)"/>
<path d="M0 0 C2.91517292 1.07401108 4.77810176 1.77810176 7 4 C5.68 5.32 4.36 6.64 3 8 C0 2.25 0 2.25 0 0 Z " fill="#1C191C" transform="translate(272,191)"/>
<path d="M0 0 C0.33 0.66 0.66 1.32 1 2 C1.66 2.33 2.32 2.66 3 3 C0.11912454 5.40072955 -2.56404834 7.47291037 -6 9 C-4.47291037 5.56404834 -2.40072955 2.88087546 0 0 Z " fill="#221E1F" transform="translate(76,88)"/>
<path d="M0 0 C0 0.66 0 1.32 0 2 C-2.75 4.1875 -2.75 4.1875 -6 6 C-8.203125 5.61328125 -8.203125 5.61328125 -10 5 C-8.71186658 4.16121545 -7.41936744 3.32913217 -6.125 2.5 C-5.40570313 2.0359375 -4.68640625 1.571875 -3.9453125 1.09375 C-2 0 -2 0 0 0 Z " fill="#231F20" transform="translate(177,119)"/>
<path d="M0 0 C0.33 0 0.66 0 1 0 C1.33 3.3 1.66 6.6 2 10 C1.34 10 0.68 10 0 10 C0 9.34 0 8.68 0 8 C-0.66 8 -1.32 8 -2 8 C-2 6.35 -2 4.7 -2 3 C-1.34 3 -0.68 3 0 3 C0 2.01 0 1.02 0 0 Z " fill="#1D1B1D" transform="translate(438,202)"/>
<path d="M0 0 C2.4375 0.6875 2.4375 0.6875 5 2 C5.875 4.5 5.875 4.5 6 7 C5.67 7.66 5.34 8.32 5 9 C3.35 6.03 1.7 3.06 0 0 Z " fill="#171317" transform="translate(265,179)"/>
<path d="M0 0 C0.66 0.66 1.32 1.32 2 2 C1.64644564 4.26274788 1.02455574 5.95088852 0 8 C-0.99 8 -1.98 8 -3 8 C-1.125 2.25 -1.125 2.25 0 0 Z " fill="#222024" transform="translate(397,315)"/>
<path d="M0 0 C0.99 0.33 1.98 0.66 3 1 C4.04449911 4.13349732 3.93423645 4.98968256 3 8 C0.9375 6.25 0.9375 6.25 -1 4 C-0.75 1.75 -0.75 1.75 0 0 Z " fill="#100E10" transform="translate(140,296)"/>
<path d="M0 0 C2.875 -0.125 2.875 -0.125 6 0 C6.66 0.66 7.32 1.32 8 2 C6.824375 2.185625 6.824375 2.185625 5.625 2.375 C2.85942178 2.79117993 2.85942178 2.79117993 1 5 C0.34 4.01 -0.32 3.02 -1 2 C-0.67 1.34 -0.34 0.68 0 0 Z " fill="#1C1A1D" transform="translate(256,25)"/>
<path d="M0 0 C0 3.61537605 -0.89229241 5.11165997 -3 8 C-3.99 8 -4.98 8 -6 8 C-4.55746343 4.63408134 -2.66735273 2.48952921 0 0 Z " fill="#242223" transform="translate(144,143)"/>
<path d="M0 0 C1.98 1.65 3.96 3.3 6 5 C5 7 5 7 3 8 C0 3.375 0 3.375 0 0 Z " fill="#49434A" transform="translate(389,103)"/>
<path d="M0 0 C0.66 0.33 1.32 0.66 2 1 C-0.25 3.5625 -0.25 3.5625 -3 6 C-4.32 5.67 -5.64 5.34 -7 5 C-4.69 3.35 -2.38 1.7 0 0 Z " fill="#1F1E1F" transform="translate(120,50)"/>
<path d="M0 0 C-3.26545761 1.88391785 -6.28111761 2.49287967 -10 3 C-9.67 2.01 -9.34 1.02 -9 0 C-5.8033 -1.37001429 -3.30096158 -0.8252404 0 0 Z " fill="#1B181C" transform="translate(192,44)"/>
<path d="M0 0 C3.37503669 1.1858237 5.64722731 2.27573689 8 5 C6.68 5.33 5.36 5.66 4 6 C0 1.125 0 1.125 0 0 Z " fill="#171618" transform="translate(387,346)"/>
<path d="M0 0 C1.5625 1.1875 1.5625 1.1875 3 3 C2.6875 5.6875 2.6875 5.6875 2 8 C0.68 6.35 -0.64 4.7 -2 3 C-1.34 2.67 -0.68 2.34 0 2 C0 1.34 0 0.68 0 0 Z " fill="#141213" transform="translate(129,280)"/>
<path d="M0 0 C2.5654594 2.5654594 2.54046087 4.47686668 3 8 C2.01 8.33 1.02 8.66 0 9 C0 6.03 0 3.06 0 0 Z " fill="#222123" transform="translate(419,195)"/>
<path d="M0 0 C0.33 0 0.66 0 1 0 C1.24954005 1.43410368 1.47392642 2.87260072 1.6875 4.3125 C1.87892578 5.51326172 1.87892578 5.51326172 2.07421875 6.73828125 C2 9 2 9 -1 12 C-0.67 8.04 -0.34 4.08 0 0 Z " fill="#231F22" transform="translate(36,174)"/>
<path d="M0 0 C2.125 0.9375 2.125 0.9375 4 2 C4 2.99 4 3.98 4 5 C-0.875 3.25 -0.875 3.25 -2 1 C-1.34 0.67 -0.68 0.34 0 0 Z " fill="#1D1B1B" transform="translate(176,451)"/>
<path d="M0 0 C0.99 0.33 1.98 0.66 3 1 C2 4 2 4 -0.0625 5.1875 C-0.701875 5.455625 -1.34125 5.72375 -2 6 C-2 3 -2 3 0 0 Z " fill="#09090B" transform="translate(388,434)"/>
<path d="M0 0 C2.475 0.99 2.475 0.99 5 2 C5 2.66 5 3.32 5 4 C4.01 4.33 3.02 4.66 2 5 C1.01 4.34 0.02 3.68 -1 3 C-0.67 2.01 -0.34 1.02 0 0 Z " fill="#030305" transform="translate(354,433)"/>
<path d="M0 0 C0.66 0.99 1.32 1.98 2 3 C0.625 6.6875 0.625 6.6875 -1 10 C-1.66 10 -2.32 10 -3 10 C-2.01 6.7 -1.02 3.4 0 0 Z " fill="#252226" transform="translate(156,341)"/>
<path d="M0 0 C0.33 1.32 0.66 2.64 1 4 C1.99 4.33 2.98 4.66 4 5 C3.34 6.65 2.68 8.3 2 10 C1.67 10 1.34 10 1 10 C0.67 6.7 0.34 3.4 0 0 Z " fill="#0F0B10" transform="translate(114,242)"/>
<path d="M0 0 C1.32 0.99 2.64 1.98 4 3 C3 5 3 5 0 7 C-0.38133299 5.0085944 -0.71325582 3.00720923 -1 1 C-0.67 0.67 -0.34 0.34 0 0 Z " fill="#0F0E12" transform="translate(412,152)"/>
<path d="M0 0 C0.66 1.32 1.32 2.64 2 4 C-0.97 6.475 -0.97 6.475 -4 9 C-2.94124926 5.59687262 -1.99097846 2.98646769 0 0 Z " fill="#1B1718" transform="translate(59,112)"/>
<path d="M0 0 C0.99 0 1.98 0 3 0 C2.67 1.65 2.34 3.3 2 5 C0.68 4.67 -0.64 4.34 -2 4 C-1.34 2.68 -0.68 1.36 0 0 Z " fill="#191617" transform="translate(80,83)"/>
</svg>
